<svg width="25" height="25" fill="none" xmlns="http://www.w3.org/2000/svg"><path fill-rule="evenodd" clip-rule="evenodd" d="M5.95.05a7 7 0 0 0-2.51.83A6.768 6.768 0 0 0 .054 6.014c-.072.647-.072 12.31 0 12.957a6.759 6.759 0 0 0 5.968 5.967c.646.073 12.31.073 12.956 0a6.759 6.759 0 0 0 5.968-5.967c.072-.647.072-12.31 0-12.957A6.759 6.759 0 0 0 18.978.047C18.404-.018 6.512-.015 5.95.05Zm13.535 1.563c1.015.28 1.796.724 2.483 1.411S23.1 4.492 23.38 5.507l.13.468V19.01l-.13.467c-.281 1.016-.725 1.797-1.412 2.484-.687.687-1.467 1.13-2.483 1.411l-.467.13H5.982l-.467-.13c-1.016-.28-1.796-.724-2.483-1.411S1.9 20.493 1.62 19.478l-.13-.468V5.975l.13-.468c.28-1.014.725-1.796 1.409-2.48.81-.81 1.88-1.35 3.002-1.515.161-.023 3.15-.04 6.64-.035l6.347.007.467.129Zm-.223 1.638c-1.19.164-2.003 1.323-1.716 2.443.204.798.708 1.303 1.501 1.506 1.34.344 2.66-.873 2.437-2.247a2.052 2.052 0 0 0-1.417-1.628 2.482 2.482 0 0 0-.805-.074Zm.547 1.558c.262.163.306.572.085.802a.512.512 0 0 1-.624.12.53.53 0 0 1-.142-.866c.203-.19.434-.21.681-.056Zm-8.25.924c-2.7.368-4.98 2.401-5.669 5.059-.605 2.333.072 4.79 1.796 6.514a6.756 6.756 0 0 0 9.628 0c2.686-2.687 2.686-6.942 0-9.627-1.543-1.54-3.608-2.239-5.755-1.946Zm1.722 1.46c1.171.178 2.17.68 3.003 1.515a5.332 5.332 0 0 1 0 7.569 5.332 5.332 0 0 1-7.568 0 5.332 5.332 0 0 1 0-7.569 5.294 5.294 0 0 1 4.565-1.515Z" fill="#fff"/></svg>