<svg width="24" height="24" fill="none" xmlns="http://www.w3.org/2000/svg"><path fill-rule="evenodd" clip-rule="evenodd" d="M2.507.107a3.345 3.345 0 0 0-2.402 2.42C.003 2.926 0 3.145 0 9.912v6.974h.637V9.94c0-7.627-.017-7.204.324-7.88.212-.42.68-.887 1.1-1.099.677-.342.22-.324 8.198-.324h7.263V0l-7.314.003C3.186.006 2.878.01 2.507.107Zm15.44.212v.318h1.529c1.182 0 1.597.018 1.832.08.982.255 1.72.993 1.976 1.975.119.458.119 18.158 0 18.616a2.726 2.726 0 0 1-1.976 1.976c-.458.119-18.158.119-18.616 0a2.726 2.726 0 0 1-1.976-1.976c-.06-.23-.079-.626-.079-1.62v-1.316H0v1.345c0 1.166.014 1.4.105 1.755a3.342 3.342 0 0 0 2.42 2.422c.403.104.608.106 9.475.106 8.846 0 9.072-.003 9.472-.105a3.342 3.342 0 0 0 2.422-2.42c.104-.403.106-.608.106-9.475 0-8.867-.002-9.072-.105-9.475a3.342 3.342 0 0 0-2.423-2.42C21.11.012 20.882 0 19.505 0h-1.558v.319ZM6.162 4.622c-1.021.211-1.733 1.25-1.547 2.256.08.433.247.75.56 1.063.784.785 1.98.785 2.765 0 .88-.88.752-2.302-.27-3.005a2.048 2.048 0 0 0-1.508-.314Zm.755.655a1.331 1.331 0 0 1 .406 2.366c-.767.556-1.873.113-2.068-.827a1.32 1.32 0 0 1 .954-1.54c.32-.086.419-.086.708 0ZM4.795 9.344a.4.4 0 0 0-.172.154c-.039.072-.057 1.606-.057 4.89v4.785l.13.13.131.13H8.288l.13-.13.13-.13v-4.802c0-4.648-.003-4.806-.1-4.927l-.102-.125-1.717-.011c-.945-.006-1.77.01-1.834.036ZM10 9.346a.393.393 0 0 0-.173.152c-.038.072-.056 1.606-.056 4.89v4.785l.13.13.13.13h1.451c1.228 0 1.47-.012 1.57-.082l.117-.083.002-2.559c.002-3.233.05-3.646.48-4.075.485-.486 1.596-.426 1.948.105.294.443.298.49.33 3.606l.028 2.886.125.101c.117.095.228.102 1.609.102h1.483l.13-.13.13-.131v-2.777c-.002-3.773-.07-4.478-.514-5.403-.383-.797-1.17-1.366-2.167-1.57-.579-.119-1.727-.117-2.256.003-.406.091-1.23.44-1.297.55-.08.128-.137.048-.138-.193-.001-.483-.03-.492-1.628-.488-.725.002-1.37.025-1.434.05Zm-2.1 5.03.013 4.42H5.204v-4.398c0-2.419.016-4.414.036-4.434.02-.02.623-.03 1.34-.022l1.305.014.014 4.42Zm4.526-3.907c0 .619.055.735.351.735.152 0 .206-.04.388-.287.227-.307.372-.427.741-.614.562-.284 1.356-.4 2.197-.32 1.191.114 1.872.52 2.27 1.355.362.758.423 1.46.424 4.843v2.616h-2.23v-2.518c0-1.98-.016-2.604-.077-2.92-.24-1.255-.956-1.797-2.208-1.67-.829.083-1.354.57-1.624 1.506-.08.278-.095.654-.113 2.961l-.02 2.643-1.046-.015-1.044-.014-.014-4.354c-.008-2.395-.002-4.384.011-4.42.02-.05.272-.067 1.01-.067h.984v.54ZM0 17.63v.318h.637v-.637H0v.318Z" fill="#fff"/></svg>