<svg width="22" height="12" fill="none" xmlns="http://www.w3.org/2000/svg"><circle cx="6" cy="6" r="5.6" stroke="#fff" stroke-width=".8"/><path d="M18.6 6c0 1.465-.325 2.772-.83 3.698-.513.94-1.157 1.402-1.77 1.402s-1.257-.461-1.77-1.402c-.505-.926-.83-2.233-.83-3.698 0-1.465.325-2.772.83-3.698C14.743 1.362 15.387.9 16 .9s1.257.461 1.77 1.402c.505.926.83 2.233.83 3.698ZM21.6 6c0 1.222-.11 2.317-.283 3.095-.088.393-.186.683-.282.865a1.049 1.049 0 0 1-.035.063 1.049 1.049 0 0 1-.035-.063c-.096-.182-.194-.472-.282-.865C20.51 8.317 20.4 7.222 20.4 6c0-1.222.11-2.317.283-3.095.088-.393.186-.683.282-.865.012-.024.024-.045.035-.062.01.017.023.038.035.062.096.182.194.472.282.865.173.778.283 1.873.283 3.095Z" stroke="#fff" stroke-width=".8"/></svg>