<svg width="309" height="388" fill="none" xmlns="http://www.w3.org/2000/svg"><g filter="url(#a)" shape-rendering="crispEdges"><path d="M14 64c0-27.614 22.386-50 50-50h181c27.614 0 50 22.386 50 50v260c0 27.614-22.386 50-50 50H64c-27.614 0-50-22.386-50-50V64Z" fill="#DA0C28" fill-opacity=".06"/><path d="M14.5 64c0-27.338 22.162-49.5 49.5-49.5h181c27.338 0 49.5 22.162 49.5 49.5v260c0 27.338-22.162 49.5-49.5 49.5H64c-27.338 0-49.5-22.162-49.5-49.5V64Z" stroke="url(#b)"/></g><defs><linearGradient id="b" x1="360" y1="56.5" x2="154.5" y2="374" gradientUnits="userSpaceOnUse"><stop offset=".318" stop-color="#DE001E"/><stop offset=".74" stop-color="#fff" stop-opacity=".15"/><stop offset="1"/></linearGradient><filter id="a" x="-16" y="-16" width="341" height="420" filterUnits="userSpaceOnUse" color-interpolation-filters="sRGB"><feFlood flood-opacity="0" result="BackgroundImageFix"/><feGaussianBlur in="BackgroundImageFix" stdDeviation="15"/><feComposite in2="SourceAlpha" operator="in" result="effect1_backgroundBlur_104_26"/><feColorMatrix in="SourceAlpha" values="0 0 0 0 0 0 0 0 0 0 0 0 0 0 0 0 0 0 127 0" result="hardAlpha"/><feOffset/><feGaussianBlur stdDeviation="7"/><feComposite in2="hardAlpha" operator="out"/><feColorMatrix values="0 0 0 0 0 0 0 0 0 0 0 0 0 0 0 0 0 0 0.7 0"/><feBlend in2="effect1_backgroundBlur_104_26" result="effect2_dropShadow_104_26"/><feBlend in="SourceGraphic" in2="effect2_dropShadow_104_26" result="shape"/></filter></defs></svg>