<svg width="25" height="21" fill="none" xmlns="http://www.w3.org/2000/svg"><path fill-rule="evenodd" clip-rule="evenodd" d="M23.486.063c-.107.035-2.495.945-5.306 2.022-2.81 1.077-7.795 2.986-11.077 4.241C3.822 7.582.996 8.676.823 8.758c-.552.262-.899.681-.809.98.05.165.264.374.512.5.206.104 5.856 1.884 6.015 1.895.04.003 3.054-1.861 6.697-4.142 3.643-2.28 6.696-4.177 6.784-4.214.21-.088.527-.085.602.004.133.16.713-.38-7.97 7.41a380.164 380.164 0 0 0-2.603 2.349l-.231.22-.197 2.797a314.022 314.022 0 0 0-.197 2.9c0 .092.02.1.184.07.413-.072.587-.202 1.709-1.272.613-.585 1.316-1.26 1.561-1.5l.446-.437 2.923 2.14c2.351 1.723 2.984 2.164 3.236 2.255.869.316 1.418-.068 1.678-1.17.052-.222.935-4.332 1.961-9.133C25.162.88 25.12 1.117 24.896.63a1.483 1.483 0 0 0-.212-.336c-.262-.273-.766-.37-1.198-.23Z" fill="#fff"/></svg>