<svg width="25" height="21" fill="none" xmlns="http://www.w3.org/2000/svg"><path fill-rule="evenodd" clip-rule="evenodd" d="M16.223.07c-1.064.178-2 .655-2.804 1.428a5.327 5.327 0 0 0-1.644 4.078l.02.586-.418-.033C8.603 5.91 5.788 4.42 3.11 1.748c-.666-.664-.747-.73-.904-.73a.696.696 0 0 0-.268.051c-.123.066-.494.805-.65 1.299a5.133 5.133 0 0 0 .018 3.147c.14.42.49 1.16.68 1.435.083.12.151.235.151.252 0 .018-.097-.024-.216-.094-.389-.228-.748-.122-.84.247-.05.195.058 1.242.173 1.69.273 1.065.89 2.041 1.698 2.684l.325.258-.151.04c-.178.046-.353.248-.353.408 0 .146.217.747.404 1.12a5.044 5.044 0 0 0 2.992 2.524c.202.062.367.128.367.146 0 .06-.612.43-1.075.648-1.18.558-2.745.796-4.37.665-.743-.06-.773-.06-.9.035a.467.467 0 0 0-.155.553c.119.287 1.434 1.11 2.458 1.537 1.992.832 4.249 1.17 6.69 1.001 1.286-.088 1.88-.202 3.193-.613 4.519-1.413 7.732-4.5 9.217-8.857.524-1.535.779-2.836.882-4.505l.053-.855.838-.856c1.207-1.232 1.71-1.937 1.625-2.276-.05-.198-.244-.364-.425-.364a.927.927 0 0 0-.371.125c-.197.116-.706.315-.804.315-.023 0 .07-.138.206-.306.378-.467.64-1.03.669-1.44.022-.308.013-.35-.099-.48-.18-.209-.429-.197-.78.035-.66.44-1.43.73-2.186.827l-.442.057-.159-.13C19.682.594 18.912.228 17.92.067a5.315 5.315 0 0 0-1.697.003Zm1.264.902c.96.098 1.748.446 2.49 1.1l.366.323.611-.026a4.955 4.955 0 0 0 1.558-.297c.118-.042.224-.076.235-.076.065 0-.368.45-.807.838-.554.492-.626.604-.543.855.107.326.37.378 1.188.235.237-.042.457-.066.488-.054.031.013-.288.36-.71.773-.732.715-.768.76-.8.982a1.677 1.677 0 0 0-.01.39c.036.235-.047 1.494-.137 2.114-.455 3.11-1.696 5.703-3.687 7.7-1.656 1.66-3.837 2.863-6.463 3.562-.835.223-1.502.302-2.782.333-2.278.054-4.008-.245-5.737-.993l-.44-.19.461-.035c1.99-.154 3.62-.806 4.857-1.945.504-.464.587-.704.34-.979-.123-.137-.172-.153-.58-.195-1.075-.11-2.161-.658-2.796-1.411-.179-.213-.595-.843-.595-.902 0-.01.203-.03.452-.043.822-.044 1.259-.26 1.259-.624 0-.254-.142-.415-.427-.486-.383-.096-.946-.361-1.391-.654-.845-.556-1.433-1.39-1.7-2.407-.088-.34-.123-.56-.087-.558.007 0 .153.045.326.099.415.13.961.175 1.194.098.2-.066.325-.252.325-.486 0-.114-.084-.236-.39-.567-1.422-1.535-1.887-3.172-1.362-4.803.054-.168.11-.305.125-.305s.26.225.546.5C4.902 4.807 7.136 6.15 9.346 6.737c.934.248 1.39.309 2.362.314l.896.005.124-.144c.135-.157.134-.098.017-1.103-.135-1.164.264-2.431 1.057-3.36.68-.795 1.766-1.363 2.827-1.477.188-.02.345-.04.349-.044.004-.004.233.017.508.045Z" fill="#fff"/></svg>