<svg width="494" height="494" viewBox="0 0 494 494" fill="none" xmlns="http://www.w3.org/2000/svg">
<circle cx="247" cy="247" r="233.5" fill="#FE0523" stroke="black" stroke-width="27"/>
<path d="M288.743 321.575C288.743 326.524 286.86 329.801 282.563 332.243L217.44 369.839C215.292 371.078 213.27 371.697 211.249 371.697C209.227 371.697 207.206 371.078 205.057 369.839L174.184 352.032C169.891 349.554 168 346.284 168 341.335V147.682C168 142.733 169.891 139.464 174.184 136.986L206.613 118.281C207.968 117.468 209.552 117 211.245 117C216.212 117 220.24 121.02 220.24 125.976C220.24 129.354 218.367 132.297 215.602 133.828L185.988 150.907V338.101L211.245 352.669L270.752 318.347V289.196L254.49 279.816V303.772C254.49 308.727 250.462 312.747 245.495 312.747C240.528 312.747 236.506 308.727 236.506 303.772L236.461 264.268C236.461 261.182 238.059 258.179 240.916 256.511C242.38 255.666 243.939 255.282 245.452 255.282C247.061 255.282 248.617 255.715 249.954 256.486L282.559 275.268C286.852 277.746 288.743 281.016 288.743 285.965L288.743 321.575ZM202.253 167.437C202.253 162.489 204.14 159.212 208.433 156.734L273.556 119.173C275.705 117.935 277.726 117.315 279.748 117.315C281.769 117.315 283.791 117.935 285.939 119.173L316.813 136.98C321.109 139.458 323 142.728 323 147.677V222.798C323 227.746 321.109 231.016 316.816 233.494L284.387 252.199C283.032 253.012 281.448 253.48 279.755 253.48C274.788 253.48 270.76 249.46 270.76 244.504C270.76 241.125 272.633 238.183 275.398 236.652L305.012 219.573V150.912L279.755 136.343L220.244 170.665V323.532C220.244 328.488 216.216 332.507 211.249 332.507C206.282 332.507 202.253 328.488 202.253 323.532V167.444V167.437ZM241.142 216.891L270.752 199.806V181.031L250.126 192.928C248.775 193.741 247.191 194.209 245.498 194.209C240.531 194.209 236.503 190.19 236.503 185.234C236.503 181.855 238.404 178.962 241.141 177.378L275.211 157.702C276.629 156.885 278.174 156.498 279.701 156.498C282.809 156.498 285.832 158.107 287.497 160.986C288.316 162.401 288.704 163.942 288.704 165.466L288.746 203.037C288.749 207.986 286.852 211.256 282.555 213.734L250.126 232.438C248.775 233.251 247.191 233.719 245.498 233.719C240.531 233.719 236.502 229.7 236.502 224.744C236.502 221.365 238.376 218.422 241.142 216.891ZM314.001 255.275C318.968 255.275 322.996 259.291 322.996 264.247V341.318C322.996 346.267 321.105 349.536 316.809 352.014L284.379 370.719C283.025 371.532 281.441 372 279.748 372C274.781 372 270.752 367.98 270.752 363.024C270.752 359.646 272.625 356.703 275.391 355.172L305.005 338.093V264.251C305.005 259.295 309.034 255.275 314.001 255.275Z" fill="black"/>
</svg>
